<?xml version="1.0" encoding="utf-8"?>
<!DOCTYPE svg PUBLIC "-//W3C//DTD SVG 1.1//EN" "http://www.w3.org/Graphics/SVG/1.1/DTD/svg11.dtd">
<svg version="1.1" id="Capa_1" xmlns="http://www.w3.org/2000/svg" xmlns:xlink="http://www.w3.org/1999/xlink" x="0px" y="0px"
	 width="512px" height="512px" viewBox="0 0 512 512" enable-background="new 0 0 512 512" xml:space="preserve">
<path fill="#FFFFFF" fill-opacity="0.25" d="M477.657,128.021C406.978,5.6,250.431-36.348,128.02,34.346C5.598,105.016-36.35,261.556,34.342,383.973
	c70.67,122.421,227.212,164.375,349.625,93.688C506.39,406.967,548.359,250.435,477.657,128.021z M358.377,433.314
	C260.455,489.87,135.21,456.31,78.671,358.368C22.118,260.445,55.69,135.202,153.615,78.674
	c97.929-56.552,223.167-22.996,279.71,74.943C489.869,251.554,456.308,376.771,358.377,433.314z"/>
<path fill="#FFFFFF" fill-opacity="0.75" d="M348.142,245.596l-134.027-78.167c-12.213-7.131-22.064-1.43-21.996,12.698l0.687,155.155
	c0.062,14.124,10.033,19.873,22.283,12.799l133.001-76.789C360.325,264.229,360.352,252.727,348.142,245.596z"/>
</svg>
