<svg enable-background="new 0 0 300 300" height="300" viewBox="0 0 300 300" width="300" xmlns="http://www.w3.org/2000/svg"><path d="m299.998 40.426v219.149c0 22.325-18.1 40.425-40.425 40.425h-11.074-53.235-98.265v-.003h-56.573c-22.327 0-40.426-18.098-40.426-40.425v-219.146c0-22.327 18.1-40.426 40.426-40.426h219.146c22.326 0 40.425 18.099 40.426 40.426z" fill="#33b44a"/><path d="m49.261 119.802h14.172v-12.03c0-4.438-.431-4.86-.92-7.418 0 0 .056-.522.433 0 .385.521 13.039 19.448 13.039 19.448h14.178v-37.033h-14.178v11.104c0 4.942.644 6.334 1.248 9.426 0 0-.046.541-.433 0-.393-.539-13.308-20.529-13.308-20.529h-14.231zm74.287-37.033h-16.4l-14.173 37.033h15.696l1.185-4.613h11.202l1.354 4.613h15.697zm-11.036 23.623l1.931-7.514c.413-1.521.709-3.705.709-3.705.052-.337.51-.337.594.011.084.518.304 2.09.742 3.658l1.975 7.55zm18.782-23.623l15.797 37.033h12.56l15.799-37.033h-15.477l-5.22 16.853c-.588 1.808-1.021 5.802-1.021 5.802-.06.29-.422.318-.528 0 0 0-.431-3.995-1.024-5.802l-5.41-16.853zm75.102 37.033v-10.119h-12.933v-3.631h11.417v-9.629h-11.417v-3.535h12.5v-10.12h-27.438v37.033zm33.04-14.367c-.307-.215 0-.302 0-.302 5.516-1.677 7.901-4.023 7.901-9.629 0-9.323-7.797-12.859-16.993-12.859h-17.912v37.03h14.504v-11.884c0 0 .09-.425.36 0l6.397 11.884h17.105l-8.878-12.033c-.813-1.076-2.184-2-2.484-2.207zm-11.47-6.387h-1.032v-6.286h1.133c2.553 0 4.769.34 4.768 3.193-.001 2.749-2.442 3.093-4.869 3.093zm-149.665 47.568c0 0-7.012 0-13.369 6.189v-24.938h-15.732v65.523h15.894v-5.133c0 0 3.748 6.77 13.207 6.77 0 0 22.165-.815 22.165-24.45 0 .001-.816-23.961-22.165-23.961zm-3.464 34.581c-5.579 0-10.109-4.525-10.109-10.108 0-5.58 4.53-10.104 10.109-10.104 5.58-.001 10.105 4.524 10.105 10.104 0 5.582-4.525 10.108-10.105 10.108zm30.682-54.796v15.162c0 0 7.177-.327 7.177 13.041v38.788h15.158v-42.375c0 .001.649-24.616-22.335-24.616zm59.402 20.419c0 0-25.985.005-25.985 24.269 0 0-.841 23.94 25.985 23.94 0 0 26.584-.038 26.584-23.94 0-.001.867-24.269-26.584-24.269zm.004 34.376c-5.579 0-10.108-4.525-10.108-10.108 0-5.58 4.529-10.104 10.108-10.104s10.104 4.525 10.104 10.104c0 5.582-4.525 10.108-10.104 10.108zm69.975-32.787v4.396c0 0-4.521-5.986-13.197-5.986 0 0-22.251-.938-22.251 24.103 0 0-.246 23.329 21.638 23.329 0 0 8.926.365 13.811-5.991v3.671c0 0 1.105 11.491-10.022 11.491h-3.787v13.933h6.111c0 0 22.979.247 22.979-24.568v-44.377h-15.282zm-9.4 32.787c-5.583 0-10.104-4.525-10.104-10.108 0-5.58 4.521-10.104 10.104-10.104 5.579 0 10.105 4.525 10.105 10.104 0 5.582-4.526 10.108-10.105 10.108z" fill="#fff"/></svg>