<svg enable-background="new 0 0 200 200" height="200" viewBox="0 0 200 200" width="200" xmlns="http://www.w3.org/2000/svg"><path d="m173.049 0h-146.098c-14.884 0-26.951 12.066-26.951 26.95v146.099c0 14.885 12.066 26.95 26.95 26.95h47.55v.001h55.676 33.656 9.217c14.885 0 26.951-12.066 26.951-26.949v-146.101c-.002-14.884-12.066-26.95-26.951-26.95z" fill="#485a93"/><path d="m154.982 128.531c2.221 0 4.09-1.661 4.352-3.865l2.73-23.037c.309-2.606-1.727-4.897-4.352-4.897h-27.537v-19.272c0-8.74 2.426-14.695 14.959-14.695l11.604-.005c2.42-.001 4.379-1.962 4.379-4.381v-19.425c0-2.42-1.961-4.381-4.381-4.381h-18.908c-23.045 0-38.822 14.066-38.822 39.898v22.26h-18.534c-2.426 0-4.391 1.972-4.381 4.398l.089 23.037c.009 2.413 1.968 4.364 4.381 4.364h18.567l-.123 71.469h-24.505v.001h55.676l.123-71.469z" fill="#fff"/></svg>