<svg enable-background="new 0 0 300 300" height="300" viewBox="0 0 300 300" width="300" xmlns="http://www.w3.org/2000/svg"><path d="m259.573 0h-219.146c-22.326 0-40.425 18.099-40.425 40.426v219.146c0 22.326 18.099 40.426 40.426 40.426h56.573v.002h98.263 53.236 11.074c22.326 0 40.424-18.101 40.424-40.425v-219.149c0-22.327-18.098-40.426-40.425-40.426z" fill="#65bbf2"/><path d="m237.7 108c .1 1.8.1 3.5.1 5.3 0 71.3-57.8 129.101-129.1 129.101-25.142 0-48.514-7.16-68.382-19.622-.207-.028-.41-.047-.618-.077v-.301c.204.129.413.249.618.378 38.67 5.445 65.882-19.079 65.882-19.079-34.8-2.7-41.7-31.6-41.7-31.6 12.3 2.102 20-.8 20-.8-39.101-9.2-35.8-45-35.8-45 9.1 5.4 19.6 5.8 19.6 5.8-34.6-30.399-12.9-60-12.9-60 36.2 43.9 89.5 46.9 93 47-.8-3.3-1.199-6.8-1.199-10.3 0-25 20.3-45.3 45.3-45.3 13.101 0 24.8 5.5 33.101 14.3 2.299-.6 4.5-1.3 6.601-2 12.8-4.3 22-9.2 22-9.2-2.2 13.2-18.5 24.3-19.7 25.101 12.6-1.301 25.6-6.7 25.6-6.7-3.903 8.199-19.803 20.999-22.403 22.999z" fill="#fff"/></svg>