<?xml version="1.0" standalone="no"?>
<!DOCTYPE svg PUBLIC "-//W3C//DTD SVG 20010904//EN"
 "http://www.w3.org/TR/2001/REC-SVG-20010904/DTD/svg10.dtd">
<svg version="1.0" xmlns="http://www.w3.org/2000/svg"
 width="16.000000pt" height="16.000000pt" viewBox="0 0 16.000000 16.000000"
 preserveAspectRatio="xMidYMid meet">
<metadata>
Created by potrace 1.11, written by Peter Selinger 2001-2013
</metadata>
<g transform="translate(0.000000,16.000000) scale(0.006250,-0.006250)"
fill="#000000" stroke="none">
<path d="M70 2182 c-58 -4 -80 -30 -55 -68 l15 -24 749 0 c666 0 750 -2 761
-16 9 -10 14 -56 15 -147 1 -73 -1 -138 -3 -144 -3 -10 -155 -13 -713 -13
-539 0 -715 -3 -735 -12 -59 -27 -59 -27 -58 -668 1 -322 2 -595 3 -607 1 -23
51 -79 73 -81 7 -1 405 -2 884 -2 962 -2 915 -5 946 61 9 17 15 51 14 75 -1
24 -1 44 1 44 1 0 96 -43 210 -96 115 -53 224 -98 244 -101 46 -7 93 17 119
60 19 31 20 55 20 642 0 587 -1 611 -20 642 -26 43 -73 67 -119 60 -20 -3 -81
-26 -136 -52 -127 -60 -314 -145 -317 -145 -2 0 -3 24 -4 53 -1 55 -21 99 -52
113 -9 5 -73 11 -141 14 l-125 5 -1 157 c-1 153 -2 157 -28 191 -15 20 -42 40
-60 46 -23 8 -255 12 -738 14 -387 1 -724 1 -749 -1z"/>
</g>
</svg>
